<svg width="102" height="56" viewBox="0 0 102 56" fill="none" xmlns="http://www.w3.org/2000/svg">
<rect width="102" height="56" rx="28" fill="#E4002B"/>
<g clip-path="url(#clip0_1_755)">
<path fill-rule="evenodd" clip-rule="evenodd" d="M36 16C36 15.6022 36.158 15.2206 36.4393 14.9393C36.7206 14.658 37.1022 14.5 37.5 14.5H64.5C64.8978 14.5 65.2794 14.658 65.5607 14.9393C65.842 15.2206 66 15.6022 66 16C66 16.3978 65.842 16.7794 65.5607 17.0607C65.2794 17.342 64.8978 17.5 64.5 17.5V34C64.5 34.7956 64.1839 35.5587 63.6213 36.1213C63.0587 36.6839 62.2956 37 61.5 37H53.9175L57.357 40.4395C57.6302 40.7224 57.7814 41.1013 57.778 41.4946C57.7746 41.8879 57.6168 42.2641 57.3387 42.5422C57.0606 42.8203 56.6844 42.9781 56.2911 42.9815C55.8978 42.9849 55.5189 42.8337 55.236 42.5605L50.994 38.3185L46.7505 42.5605C46.4676 42.8337 46.0887 42.9849 45.6954 42.9815C45.3021 42.9781 44.9259 42.8203 44.6478 42.5422C44.3697 42.2641 44.2119 41.8879 44.2085 41.4946C44.2051 41.1013 44.3563 40.7224 44.6295 40.4395L48.069 37H40.5C39.7044 37 38.9413 36.6839 38.3787 36.1213C37.8161 35.5587 37.5 34.7956 37.5 34V17.5C37.1022 17.5 36.7206 17.342 36.4393 17.0607C36.158 16.7794 36 16.3978 36 16ZM57.3645 20.758C57.6474 20.4848 58.0263 20.3336 58.4196 20.337C58.8129 20.3404 59.1891 20.4982 59.4672 20.7763C59.7453 21.0544 59.9031 21.4306 59.9065 21.8239C59.9099 22.2172 59.7587 22.5961 59.4855 22.879L53.1315 29.233C52.8474 29.517 52.4622 29.6765 52.0605 29.6765C51.6588 29.6765 51.2736 29.517 50.9895 29.233L47.82 26.0635L44.6385 29.2435C44.3558 29.5169 43.977 29.6684 43.5837 29.6653C43.1904 29.6621 42.8141 29.5046 42.5357 29.2267C42.2574 28.9488 42.0994 28.5727 42.0957 28.1794C42.092 27.7861 42.243 27.4071 42.516 27.124L46.749 22.891C47.0331 22.607 47.4183 22.4475 47.82 22.4475C48.2217 22.4475 48.6069 22.607 48.891 22.891L52.0605 26.0605L57.3645 20.758Z" fill="white"/>
</g>
<defs>
<clipPath id="clip0_1_755">
<rect width="36" height="36" fill="white" transform="translate(33 10)"/>
</clipPath>
</defs>
</svg>
