<svg width="56" height="56" viewBox="0 0 56 56" fill="none" xmlns="http://www.w3.org/2000/svg">
<rect width="56" height="56" rx="28" fill="#E4002B"/>
<path d="M18.5455 32.2581C21.7636 32.2581 23.2727 29.0374 24.6109 26.1961C25.9491 23.3548 26.9855 21.4194 28.7273 21.4194C30.4691 21.4194 31.4873 23.3123 32.8436 26.1961C34.2 29.08 35.6909 32.2581 38.9091 32.2581H40V29.9355H38.9091C37.1673 29.9355 36.1491 28.0426 34.7927 25.1587C33.4364 22.2748 31.9455 19.0968 28.7273 19.0968C25.5091 19.0968 24 22.3174 22.6618 25.1587C21.3236 28 20.2873 29.9355 18.5455 29.9355H18.1818V16H16V38.8387C16 39.1467 16.1149 39.4421 16.3195 39.6599C16.5241 39.8777 16.8016 40 17.0909 40H40V37.6774H18.1818V32.2581H18.5455Z" fill="white"/>
</svg>
