<svg width="20" height="13" viewBox="0 0 20 13" fill="none" xmlns="http://www.w3.org/2000/svg">
<path d="M1.50001 0C1.301 0 1.11843 0.0427634 0.944911 0.113242L9.54689 7.75669C9.83965 8.01724 10.1842 8.01643 10.4762 7.75669L19.0617 0.113242C18.8882 0.0435541 18.6982 0 18.4992 0H1.50001ZM0.0238487 1.25675C0.0106906 1.33594 0 1.41434 0 1.49749V11.5031C0 11.7169 0.0526321 11.9141 0.133225 12.0971L6.02381 6.59016L0.0238487 1.25675ZM19.9845 1.25675L14.0074 6.58302L19.875 12.097C19.9548 11.9133 20 11.7161 20 11.5023V1.49666C20 1.41351 19.9975 1.33511 19.9844 1.25592L19.9845 1.25675ZM7.12497 7.56828L1.32807 12.9929C1.38646 12.9992 1.43992 13 1.49995 13H18.5001C18.5602 13 18.6218 13 18.6794 12.9929L12.9063 7.56828L11.5 8.81712C10.6686 9.55834 9.35516 9.55676 8.52294 8.81712L7.12497 7.56828Z" fill="#212225"/>
</svg>
