<svg width="24" height="25" viewBox="0 0 24 25" fill="none" xmlns="http://www.w3.org/2000/svg">
<g clip-path="url(#clip0_1_567)">
<path d="M16 3.5C16.5046 3.49984 16.9906 3.69041 17.3605 4.0335C17.7305 4.37659 17.9572 4.84684 17.995 5.35L18 5.5V10.5H19.5C19.8729 10.5 20.2324 10.6389 20.5084 10.8896C20.7844 11.1403 20.9572 11.4848 20.993 11.856L21 12V19.5C21 20.2652 20.7077 21.0015 20.1827 21.5583C19.6578 22.115 18.9399 22.4501 18.176 22.495L18 22.5H5C4.49542 22.5002 4.00943 22.3096 3.63945 21.9665C3.26947 21.6234 3.04284 21.1532 3.005 20.65L3 20.5V5.5C2.99984 4.99542 3.19041 4.50943 3.5335 4.13945C3.87659 3.76947 4.34684 3.54284 4.85 3.505L5 3.5H16ZM19 12.5H18V20.5C18.2652 20.5 18.5196 20.3946 18.7071 20.2071C18.8946 20.0196 19 19.7652 19 19.5V12.5ZM16 5.5H5V20.5H16V5.5ZM11 13.5C11.2549 13.5003 11.5 13.5979 11.6854 13.7728C11.8707 13.9478 11.9822 14.187 11.9972 14.4414C12.0121 14.6958 11.9293 14.9464 11.7657 15.1418C11.6021 15.3373 11.3701 15.4629 11.117 15.493L11 15.5H8C7.74512 15.4997 7.49997 15.4021 7.31463 15.2272C7.1293 15.0522 7.01777 14.813 7.00283 14.5586C6.98789 14.3042 7.07067 14.0536 7.23426 13.8582C7.39786 13.6627 7.6299 13.5371 7.883 13.507L8 13.5H11ZM13 8.5C13.2652 8.5 13.5196 8.60536 13.7071 8.79289C13.8946 8.98043 14 9.23478 14 9.5C14 9.76522 13.8946 10.0196 13.7071 10.2071C13.5196 10.3946 13.2652 10.5 13 10.5H8C7.73478 10.5 7.48043 10.3946 7.29289 10.2071C7.10536 10.0196 7 9.76522 7 9.5C7 9.23478 7.10536 8.98043 7.29289 8.79289C7.48043 8.60536 7.73478 8.5 8 8.5H13Z" fill="white"/>
</g>
<defs>
<clipPath id="clip0_1_567">
<rect width="24" height="24" fill="white" transform="translate(0 0.5)"/>
</clipPath>
</defs>
</svg>
