<svg width="84" height="75" viewBox="0 0 84 75" fill="none" xmlns="http://www.w3.org/2000/svg">
<path d="M0.672533 17.1572C0.672533 17.2599 0.692845 17.5207 0.952851 17.7143L11.8003 25.3517L39.8281 7.78151L28.2411 0.124429C28.1274 0.0533105 27.9933 0.0137939 27.8552 0.0137939C27.7211 0.0137939 27.6073 0.0454028 27.4895 0.116519L0.972975 16.6236C0.700779 16.7975 0.660156 17.0582 0.660156 17.1609L0.672533 17.1572Z" fill="#E4002B"/>
<path d="M82.6679 17.7151C82.9279 17.5334 82.9482 17.2687 82.9482 17.1699C82.9482 17.0672 82.9076 16.8064 82.6354 16.6326L56.1271 0.105237C55.8996 -0.0369951 55.6071 -0.0369953 55.3877 0.11709L43.8008 7.77418L71.8285 25.3443L82.676 17.707L82.6679 17.7151Z" fill="#E4002B"/>
<path d="M0.203893 35.5192C0.203893 35.6299 0.236393 35.8946 0.504523 36.0763L27.2977 53.3744C27.5252 53.5245 27.8299 53.5166 28.0574 53.3744L39.8306 45.4052L11.7498 27.918L0.508132 34.9864C0.227814 35.1602 0.195312 35.4329 0.195312 35.5316L0.203893 35.5192Z" fill="#E4002B"/>
<path d="M41.8012 9.06067L13.7734 26.6227L41.8012 44.0786L69.8289 26.6227L41.8012 9.06067Z" fill="#E4002B"/>
<path d="M83.0881 34.9716L71.8464 27.9032L43.7656 45.3904L55.5387 53.3596C55.7663 53.5216 56.0709 53.5216 56.2985 53.3596L83.0917 36.0616C83.3639 35.8798 83.3923 35.6151 83.3923 35.5045C83.3923 35.4017 83.3598 35.1291 83.0795 34.9592L83.0881 34.9716Z" fill="#E4002B"/>
<path d="M27.6675 55.6004C27.115 55.6004 26.5666 55.4503 26.0872 55.1342L12.8477 46.5881V56.7544C12.8477 57.0191 12.9817 57.2601 13.2133 57.4023L40.7127 74.6174V47.3868L29.3129 55.1032C28.8132 55.435 28.2526 55.6089 27.6798 55.6089L27.6675 55.6004Z" fill="#E4002B"/>
<path d="M55.9392 55.6046C55.3663 55.6046 54.7935 55.4308 54.306 55.0989L42.9062 47.3825V74.6132L70.4056 57.398C70.6331 57.2558 70.7713 57.0148 70.7713 56.7501V46.5839L57.5317 55.1299C57.0523 55.4421 56.5039 55.5961 55.9514 55.5961L55.9392 55.6046Z" fill="#E4002B"/>
</svg>
