<svg width="19" height="21" viewBox="0 0 19 21" fill="none" xmlns="http://www.w3.org/2000/svg">
<path fill-rule="evenodd" clip-rule="evenodd" d="M14.5797 3.19775C13.6192 2.22034 12.0623 2.22034 11.1017 3.19775L3.15361 11.2871C1.52418 12.9453 1.52418 15.6335 3.15361 17.2916C4.78214 18.9498 7.42463 18.9498 9.05308 17.2916L17.3516 8.84667C17.729 8.46252 18.3401 8.46252 18.7176 8.84667C19.0941 9.2299 19.0941 9.85264 18.7176 10.2359L10.4191 18.6808C8.03562 21.1064 4.17108 21.1064 1.7876 18.6808C-0.595868 16.2553 -0.595868 12.3225 1.7876 9.89792L9.73661 1.80859C11.4511 0.0638022 14.2313 0.0638022 15.9457 1.80859C17.6602 3.55339 17.6602 6.38259 15.9457 8.12728L7.94339 16.2709C6.89783 17.3358 5.20141 17.3358 4.15578 16.2709C3.11023 15.2068 3.11023 13.4814 4.15578 12.4164L11.6195 4.8209C11.997 4.43675 12.608 4.43675 12.9855 4.8209C13.363 5.20413 13.363 5.82687 12.9855 6.2101L5.52179 13.8065C5.2294 14.1032 5.2294 14.585 5.52179 14.8816C5.81328 15.1782 6.28582 15.1782 6.57731 14.8816L14.5796 6.73804C15.5401 5.76062 15.5401 4.17528 14.5797 3.19775Z" fill="#343434"/>
</svg>
