<svg width="24" height="25" viewBox="0 0 24 25" fill="none" xmlns="http://www.w3.org/2000/svg">
<g clip-path="url(#clip0_1_581)">
<path fill-rule="evenodd" clip-rule="evenodd" d="M7.1 7.74994H4C3.46957 7.74994 2.96086 7.96065 2.58579 8.33573C2.21071 8.7108 2 9.21951 2 9.74994V19.7499C2 20.2804 2.21071 20.7891 2.58579 21.1642C2.96086 21.5392 3.46957 21.7499 4 21.7499H20C20.5304 21.7499 21.0391 21.5392 21.4142 21.1642C21.7893 20.7891 22 20.2804 22 19.7499V9.74994C22 9.21951 21.7893 8.7108 21.4142 8.33573C21.0391 7.96065 20.5304 7.74994 20 7.74994H16.9C16.6685 6.6213 16.0545 5.60717 15.1617 4.87892C14.2689 4.15066 13.1521 3.75293 12 3.75293C10.8479 3.75293 9.73105 4.15066 8.83827 4.87892C7.94549 5.60717 7.33148 6.6213 7.1 7.74994ZM9.17 7.74994H14.83C14.6234 7.16441 14.2403 6.65737 13.7334 6.29873C13.2265 5.94009 12.6209 5.74749 12 5.74749C11.3791 5.74749 10.7735 5.94009 10.2666 6.29873C9.75974 6.65737 9.3766 7.16441 9.17 7.74994ZM20 12.7499V9.74994H4V12.7499H9.17C9.3766 12.1644 9.75974 11.6574 10.2666 11.2987C10.7735 10.9401 11.3791 10.7475 12 10.7475C12.6209 10.7475 13.2265 10.9401 13.7334 11.2987C14.2403 11.6574 14.6234 12.1644 14.83 12.7499H20ZM15 14.7499H20V19.7499H4V14.7499H9C9 15.5456 9.31607 16.3087 9.87868 16.8713C10.4413 17.4339 11.2044 17.7499 12 17.7499C12.7956 17.7499 13.5587 17.4339 14.1213 16.8713C14.6839 16.3087 15 15.5456 15 14.7499ZM12 12.7499C11.7348 12.7499 11.4804 12.8553 11.2929 13.0428C11.1054 13.2304 11 13.4847 11 13.7499V14.7499C11 15.0152 11.1054 15.2695 11.2929 15.457C11.4804 15.6446 11.7348 15.7499 12 15.7499C12.2652 15.7499 12.5196 15.6446 12.7071 15.457C12.8946 15.2695 13 15.0152 13 14.7499V13.7499C13 13.4847 12.8946 13.2304 12.7071 13.0428C12.5196 12.8553 12.2652 12.7499 12 12.7499Z" fill="white"/>
</g>
<defs>
<clipPath id="clip0_1_581">
<rect width="24" height="24" fill="white" transform="translate(0 0.75)"/>
</clipPath>
</defs>
</svg>
