<svg width="20" height="19" viewBox="0 0 20 19" fill="none" xmlns="http://www.w3.org/2000/svg">
<path d="M10 0C7.34811 0 4.80457 1.0009 2.92846 2.78203C1.05346 4.56413 0 6.98071 0 9.5C0 12.0193 1.05358 14.4357 2.92846 16.218C4.80434 17.9992 7.34811 19 10 19C12.6519 19 15.1954 17.9991 17.0715 16.218C18.9465 14.4359 20 12.0193 20 9.5C19.9973 6.98158 18.9429 4.56673 17.0679 2.78551C15.1929 1.00429 12.651 0.00260571 10 0ZM10.7143 8.93673C10.717 9.47705 10.4911 9.99615 10.0857 10.3753L6.93577 13.3745C6.65451 13.6366 6.20274 13.6366 5.92149 13.3745C5.6429 13.1081 5.6429 12.6773 5.92149 12.4109L9.07851 9.41846C9.21333 9.29123 9.28744 9.11735 9.28566 8.93667V3.39279C9.28566 3.01787 9.60529 2.71422 9.99994 2.71422C10.3946 2.71422 10.7142 3.01787 10.7142 3.39279L10.7143 8.93673Z" fill="#212225"/>
</svg>
