<svg width="60" height="60" viewBox="0 0 60 60" fill="none" xmlns="http://www.w3.org/2000/svg">
<circle cx="30" cy="30" r="30" fill="#E4002B"/>
<g clip-path="url(#clip0_1_894)">
<path d="M20.068 23.482L28.943 32.358C29.2056 32.6207 29.5562 32.7767 29.9272 32.7957C30.2981 32.8148 30.6629 32.6955 30.951 32.461L31.065 32.358L39.934 23.488C39.963 23.598 39.982 23.71 39.992 23.825L40 24V36C40.0002 36.5046 39.8096 36.9906 39.4665 37.3605C39.1234 37.7305 38.6532 37.9572 38.15 37.995L38 38H22C21.4954 38.0002 21.0094 37.8096 20.6395 37.4665C20.2695 37.1234 20.0428 36.6532 20.005 36.15L20 36V24C20 23.88 20.01 23.764 20.03 23.65L20.068 23.482ZM38 22C38.121 22 38.24 22.01 38.355 22.031L38.525 22.07L30.005 30.59L21.482 22.068C21.592 22.038 21.706 22.018 21.822 22.008L22 22H38Z" fill="white"/>
</g>
<defs>
<clipPath id="clip0_1_894">
<rect width="24" height="24" fill="white" transform="translate(18 18)"/>
</clipPath>
</defs>
</svg>
