<svg width="56" height="56" viewBox="0 0 56 56" fill="none" xmlns="http://www.w3.org/2000/svg">
<rect width="56" height="56" rx="28" fill="#E4002B"/>
<path d="M24.1818 18C24.578 18.0109 24.9531 18.2573 25.0829 18.6091C25.2719 19.1236 24.8815 19.7182 24.3422 19.8055C24.2945 19.8127 24.283 19.8127 24.2353 19.8164L24.1818 19.8182H20.7588L28 26.7145L35.2412 19.8182H31.8182L31.7647 19.8164C31.717 19.8127 31.7055 19.8127 31.6578 19.8055C31.1185 19.7182 30.7281 19.1236 30.9171 18.6091C31.0469 18.2564 31.422 18.0109 31.8182 18H37.5455C37.5636 18.0009 37.5808 18.0009 37.5989 18.0018C37.6466 18.0055 37.6581 18.0055 37.7058 18.0127C38.1086 18.0782 38.4475 18.4118 38.4943 18.8073C38.499 18.8527 38.499 18.8636 38.5 18.9091V24.3636C38.4885 24.7618 38.2012 25.13 37.8099 25.2373C37.281 25.3818 36.6606 25.0018 36.5966 24.4655C36.5919 24.42 36.5919 24.4091 36.5909 24.3636V21.1036L29.3497 28L36.5909 34.8964V31.6364C36.5919 31.5909 36.5919 31.58 36.5966 31.5345C36.6434 31.1391 36.9823 30.8055 37.3851 30.74C37.4328 30.7327 37.4443 30.7327 37.492 30.7291C37.5245 30.7282 37.5493 30.7218 37.6524 30.7327C38.0848 30.7791 38.4465 31.13 38.4943 31.5345C38.499 31.58 38.499 31.5909 38.5 31.6364V37.0909C38.499 37.1364 38.499 37.1473 38.4943 37.1927C38.4456 37.6045 38.0771 37.9491 37.6524 37.9945C37.6046 37.9991 37.5932 37.9991 37.5455 38H31.8182C31.7705 37.9991 31.759 37.9991 31.7113 37.9945C31.3734 37.9582 31.066 37.7364 30.9362 37.4391C30.6937 36.8818 31.1548 36.2318 31.7647 36.1836L31.8182 36.1818H35.2412L28 29.2855L20.7588 36.1818H24.1818L24.2353 36.1836C24.8452 36.2318 25.3063 36.8818 25.0638 37.4391C24.934 37.7364 24.6266 37.9582 24.2887 37.9945C24.241 37.9991 24.2295 37.9991 24.1818 38H18.4545C18.4068 37.9991 18.3954 37.9991 18.3476 37.9945C17.9229 37.9491 17.5544 37.6045 17.5057 37.1927C17.501 37.1473 17.501 37.1364 17.5 37.0909V31.6364C17.501 31.5909 17.501 31.58 17.5057 31.5345C17.5535 31.13 17.9152 30.7791 18.3476 30.7327C18.4507 30.7218 18.4755 30.7282 18.508 30.7291C18.5557 30.7327 18.5672 30.7327 18.6149 30.74C19.0177 30.8055 19.3566 31.1391 19.4034 31.5345C19.4081 31.58 19.4081 31.5909 19.4091 31.6364V34.8964L26.6503 28L19.4091 21.1036V24.3636C19.4081 24.4091 19.4081 24.42 19.4034 24.4655C19.3394 25.0018 18.719 25.3818 18.1901 25.2373C17.7988 25.13 17.5115 24.7618 17.5 24.3636V18.9091C17.501 18.8636 17.501 18.8527 17.5057 18.8073C17.5525 18.4118 17.8914 18.0782 18.2942 18.0127C18.3419 18.0055 18.3534 18.0055 18.4011 18.0018L18.4545 18H24.1818Z" fill="white"/>
</svg>
