<svg width="56" height="56" viewBox="0 0 56 56" fill="none" xmlns="http://www.w3.org/2000/svg">
<rect width="56" height="56" rx="28" fill="#E4002B"/>
<path d="M28 14.5C24.42 14.5 20.9862 15.9223 18.4534 18.4534C15.9222 20.9859 14.5 24.42 14.5 28C14.5 31.58 15.9223 35.0138 18.4534 37.5466C20.9859 40.0778 24.42 41.5 28 41.5C31.58 41.5 35.0138 40.0777 37.5466 37.5466C40.0778 35.0141 41.5 31.58 41.5 28C41.4964 24.4212 40.0729 20.9896 37.5416 18.4584C35.0104 15.9271 31.5788 14.5037 28 14.5ZM28 39.5714C24.9312 39.5714 21.9878 38.3528 19.8179 36.1821C17.6471 34.0125 16.4286 31.0691 16.4286 28C16.4286 24.9309 17.6472 21.9878 19.8179 19.8179C21.9875 17.6471 24.9309 16.4286 28 16.4286C31.0691 16.4286 34.0122 17.6472 36.1821 19.8179C38.3529 21.9875 39.5714 24.9309 39.5714 28C39.5678 31.0676 38.348 34.0088 36.1784 36.1784C34.0087 38.3479 31.0678 39.5677 28 39.5714ZM33.5037 32.1392C33.6893 32.3188 33.7954 32.5659 33.7978 32.825C33.8002 33.083 33.6977 33.3325 33.5157 33.5157C33.3325 33.6977 33.083 33.8002 32.8251 33.7978C32.5659 33.7954 32.3188 33.6893 32.1392 33.5037L27.601 28.9643C27.2382 28.6039 27.0345 28.1121 27.0357 27.601V19.3214C27.0357 18.7886 27.4672 18.3571 28 18.3571C28.5328 18.3571 28.9643 18.7886 28.9643 19.3214V27.601L33.5037 32.1392Z" fill="white"/>
</svg>
