<svg width="56" height="56" viewBox="0 0 56 56" fill="none" xmlns="http://www.w3.org/2000/svg">
<rect width="56" height="56" rx="28" fill="#E4002B"/>
<path d="M38 21H28.8333C28.704 20.9997 28.5766 20.968 28.4609 20.9073C28.3453 20.8466 28.2446 20.7585 28.1668 20.6501L26.6666 18.5493C26.433 18.2242 26.1308 17.9603 25.7839 17.7783C25.4369 17.5962 25.0545 17.501 24.6667 17.5H18C17.3372 17.5008 16.7017 17.7776 16.233 18.2697C15.7643 18.7618 15.5007 19.429 15.5 20.125V35.875C15.5007 36.571 15.7643 37.2382 16.233 37.7303C16.7017 38.2224 17.3372 38.4992 18 38.5H38C38.6628 38.4992 39.2983 38.2224 39.767 37.7303C40.2357 37.2382 40.4993 36.571 40.5 35.875V23.625C40.4993 22.929 40.2357 22.2618 39.767 21.7697C39.2983 21.2776 38.6628 21.0008 38 21ZM17.1667 20.125C17.167 19.893 17.2548 19.6706 17.4111 19.5066C17.5673 19.3426 17.7791 19.2503 18 19.25H24.6667C24.796 19.2503 24.9234 19.282 25.0391 19.3427C25.1547 19.4034 25.2554 19.4915 25.3332 19.5999L26.8334 21.7007C27.067 22.0258 27.3692 22.2897 27.7161 22.4717C28.0631 22.6538 28.4455 22.749 28.8333 22.75H38C38.2209 22.7503 38.4327 22.8426 38.5889 23.0066C38.7452 23.1706 38.833 23.393 38.8333 23.625V26.25H17.1667V20.125ZM38.8333 35.875C38.833 36.107 38.7452 36.3294 38.5889 36.4934C38.4327 36.6574 38.2209 36.7497 38 36.75H18C17.7791 36.7497 17.5673 36.6574 17.4111 36.4934C17.2548 36.3294 17.167 36.107 17.1667 35.875V28H38.8333V35.875Z" fill="white"/>
</svg>
