<svg width="60" height="60" viewBox="0 0 60 60" fill="none" xmlns="http://www.w3.org/2000/svg">
<circle cx="30" cy="30" r="30" fill="#E4002B"/>
<g clip-path="url(#clip0_1_876)">
<path d="M34 21C35.3261 21 36.5979 21.5268 37.5355 22.4645C38.4732 23.4021 39 24.6739 39 26V34C39 35.3261 38.4732 36.5979 37.5355 37.5355C36.5979 38.4732 35.3261 39 34 39H26C24.6739 39 23.4021 38.4732 22.4645 37.5355C21.5268 36.5979 21 35.3261 21 34V26C21 24.6739 21.5268 23.4021 22.4645 22.4645C23.4021 21.5268 24.6739 21 26 21H34ZM30 26C28.9391 26 27.9217 26.4214 27.1716 27.1716C26.4214 27.9217 26 28.9391 26 30C26 31.0609 26.4214 32.0783 27.1716 32.8284C27.9217 33.5786 28.9391 34 30 34C31.0609 34 32.0783 33.5786 32.8284 32.8284C33.5786 32.0783 34 31.0609 34 30C34 28.9391 33.5786 27.9217 32.8284 27.1716C32.0783 26.4214 31.0609 26 30 26ZM30 28C30.5304 28 31.0391 28.2107 31.4142 28.5858C31.7893 28.9609 32 29.4696 32 30C32 30.5304 31.7893 31.0391 31.4142 31.4142C31.0391 31.7893 30.5304 32 30 32C29.4696 32 28.9609 31.7893 28.5858 31.4142C28.2107 31.0391 28 30.5304 28 30C28 29.4696 28.2107 28.9609 28.5858 28.5858C28.9609 28.2107 29.4696 28 30 28ZM34.5 24.5C34.2348 24.5 33.9804 24.6054 33.7929 24.7929C33.6054 24.9804 33.5 25.2348 33.5 25.5C33.5 25.7652 33.6054 26.0196 33.7929 26.2071C33.9804 26.3946 34.2348 26.5 34.5 26.5C34.7652 26.5 35.0196 26.3946 35.2071 26.2071C35.3946 26.0196 35.5 25.7652 35.5 25.5C35.5 25.2348 35.3946 24.9804 35.2071 24.7929C35.0196 24.6054 34.7652 24.5 34.5 24.5Z" fill="white"/>
</g>
<defs>
<clipPath id="clip0_1_876">
<rect width="24" height="24" fill="white" transform="translate(18 18)"/>
</clipPath>
</defs>
</svg>
