<svg width="15" height="18" viewBox="0 0 15 18" fill="none" xmlns="http://www.w3.org/2000/svg">
<path d="M14.6695 13.8463C15.3188 14.8145 14.982 16.0778 13.9166 16.6682L12.0467 17.7023V17.7015C11.6948 17.8965 11.291 18 10.8788 18C10.5052 17.9991 10.1373 17.917 9.80601 17.7596C6.86226 16.3577 4.39022 14.2587 2.64912 11.6857C0.914716 9.09131 -0.000957247 6.11479 6.41751e-06 3.07893C-0.00187562 2.3647 0.41031 1.70178 1.08413 1.33397L2.95499 0.299816C4.02029 -0.289532 5.40944 0.0166819 6.05871 0.984111L7.23223 2.73761C7.88158 3.7059 7.54468 4.96853 6.47937 5.55866L5.51007 6.09412V6.09498C5.22116 6.25236 5.08377 6.56713 5.17505 6.86224C5.81876 8.7526 6.96687 10.4685 8.51776 11.8575C8.76338 12.0713 9.13699 12.1064 9.42496 11.9413L10.3933 11.4059C11.4586 10.8165 12.8478 11.1227 13.497 12.0901L14.6695 13.8463Z" fill="#212225"/>
</svg>
