<svg width="60" height="60" viewBox="0 0 60 60" fill="none" xmlns="http://www.w3.org/2000/svg">
<circle cx="30" cy="30" r="30" fill="#E4002B"/>
<g clip-path="url(#clip0_1_888)">
<path fill-rule="evenodd" clip-rule="evenodd" d="M27.2554 20.9246C29.3438 20.8077 31.437 20.8077 33.5254 20.9246L34.1574 20.9606L34.7394 21.0026C35.6714 21.0826 36.4214 21.2216 37.1234 21.5996C37.9768 22.0791 38.681 22.785 39.1584 23.6396C39.5734 24.4136 39.6964 25.2326 39.7684 26.2786L39.8214 27.1886C39.8966 28.6063 39.8966 30.0269 39.8214 31.4446L39.7684 32.3546C39.6964 33.4016 39.5734 34.2196 39.1584 34.9936C38.6811 35.8482 37.9768 36.5541 37.1234 37.0336C36.2804 37.4876 35.3694 37.5966 34.1574 37.6726L33.5254 37.7096C32.4816 37.7742 31.4362 37.8099 30.3904 37.8166L28.7564 37.8216C28.5914 37.8216 28.4244 37.8196 28.2574 37.8166L27.7564 37.8046L25.5154 39.5976C25.3767 39.7086 25.211 39.7807 25.0353 39.8064C24.8595 39.8322 24.6801 39.8106 24.5154 39.744C24.3507 39.6774 24.2068 39.5682 24.0983 39.4275C23.9899 39.2868 23.9209 39.1198 23.8984 38.9436L23.8904 38.8166V37.1506C23.8116 37.114 23.7339 37.075 23.6574 37.0336C22.804 36.5541 22.0997 35.8482 21.6224 34.9936C21.2084 34.2196 21.0844 33.4016 21.0124 32.3556L20.9764 31.7606L20.9594 31.4446C20.884 30.0269 20.884 28.6062 20.9594 27.1886L21.0124 26.2786C21.0844 25.2326 21.2084 24.4136 21.6224 23.6406C22.0997 22.786 22.804 22.08 23.6574 21.6006C24.4294 21.1836 25.2604 21.0566 26.3274 20.9806L26.9324 20.9426L27.2554 20.9246ZM26.8554 24.7016C25.8784 25.1206 25.0424 26.1796 25.0834 27.2816L25.0924 27.4436L25.1114 27.6386C25.1154 27.6736 25.1194 27.7086 25.1254 27.7466L25.1634 27.9866C25.3424 28.9606 25.8894 30.5416 27.5284 32.1796C29.1664 33.8186 30.7484 34.3656 31.7214 34.5446L31.9614 34.5826L32.1714 34.6076L32.4254 34.6246C33.5264 34.6646 34.5854 33.8346 35.0044 32.8576C35.0564 32.7367 35.0751 32.6041 35.0584 32.4736C35.0417 32.3431 34.9902 32.2194 34.9094 32.1156C34.4764 31.5596 33.9274 31.1226 33.3574 30.7156L32.7844 30.3156C32.6248 30.205 32.4286 30.1605 32.237 30.1915C32.0453 30.2224 31.8731 30.3264 31.7564 30.4816L31.1214 31.4486C31.088 31.5004 31.0361 31.5376 30.9763 31.5525C30.9164 31.5673 30.8532 31.5588 30.7994 31.5286C30.3694 31.2836 29.7434 30.8656 29.2934 30.4146C28.8434 29.9646 28.4504 29.3666 28.2294 28.9646C28.2018 28.9135 28.1937 28.8541 28.2066 28.7974C28.2195 28.7408 28.2524 28.6908 28.2994 28.6566L29.2754 27.9326C29.4149 27.8116 29.5051 27.6436 29.5287 27.4605C29.5523 27.2774 29.5077 27.0919 29.4034 26.9396L29.0734 26.4546C28.6724 25.8686 28.1994 25.2346 27.5784 24.7806C27.4751 24.7058 27.3541 24.6592 27.2274 24.6454C27.1006 24.6315 26.9724 24.6509 26.8554 24.7016ZM31.4834 26.7036C31.2333 26.6153 30.9584 26.6299 30.7191 26.7443C30.4798 26.8587 30.2957 27.0635 30.2074 27.3136C30.1191 27.5637 30.1337 27.8386 30.2481 28.0779C30.3625 28.3172 30.5673 28.5013 30.8174 28.5896C30.9304 28.6296 31.0254 28.7096 31.0854 28.8136L31.1224 28.8946C31.2107 29.1447 31.3948 29.3495 31.6341 29.4639C31.8734 29.5782 32.1483 29.5929 32.3984 29.5046C32.6485 29.4163 32.8533 29.2322 32.9677 28.9929C33.0821 28.7536 33.0967 28.4787 33.0084 28.2286C32.8839 27.8768 32.6824 27.5573 32.4185 27.2935C32.1546 27.0296 31.8352 26.8281 31.4834 26.7036ZM31.2074 24.4836C31.1637 24.6074 31.1447 24.7387 31.1517 24.8698C31.1587 25.001 31.1915 25.1294 31.2481 25.2479C31.3048 25.3664 31.3842 25.4726 31.4819 25.5604C31.5795 25.6482 31.6936 25.7159 31.8174 25.7596C32.3093 25.9344 32.7561 26.2166 33.1252 26.5858C33.4944 26.9549 33.7766 27.4017 33.9514 27.8936C33.9951 28.0174 34.0628 28.1314 34.1506 28.2291C34.2384 28.3268 34.3446 28.4062 34.4631 28.4629C34.5816 28.5195 34.71 28.5522 34.8412 28.5592C34.9723 28.5662 35.1036 28.5473 35.2274 28.5036C35.3512 28.4599 35.4653 28.3922 35.5629 28.3044C35.6606 28.2166 35.74 28.1104 35.7967 27.9919C35.8533 27.8734 35.8861 27.7449 35.8931 27.6138C35.9 27.4827 35.8811 27.3514 35.8374 27.2276C35.5632 26.4542 35.1198 25.7517 34.5396 25.1714C33.9593 24.5912 33.2568 24.1478 32.4834 23.8736C32.3596 23.8298 32.2283 23.8109 32.0972 23.8179C31.966 23.8249 31.8375 23.8576 31.7191 23.9143C31.6006 23.9709 31.4944 24.0504 31.4066 24.148C31.3188 24.2457 31.2511 24.3597 31.2074 24.4836Z" fill="white"/>
</g>
<defs>
<clipPath id="clip0_1_888">
<rect width="24" height="24" fill="white" transform="translate(17.8906 17.8164)"/>
</clipPath>
</defs>
</svg>
